# xmcd
#
# Track frame offsets: 
#        182
#        13822
#        31755
#        54362
#        69810
#        82875
#        95707
#        111542
#        123912
#        146992
#        197100
#        212252
#        224717
#        237610
#        259707
#        271385
#
# Disc length: 3787 seconds
#
# Revision: 2
# Processed by: cddbd v1.5.2PL0 Copyright (c) Steve Scherf et al.
# Submitted via: ExactAudioCopyFreeDBPlugin 1.0
#
DISCID=ee0ec910
DTITLE=Canned Heat - Boogie with Canned Heat
DYEAR=1968
DGENRE=Blues
TTITLE0=Evil woman
TTITLE1=My crime
TTITLE2=On the road again
TTITLE3=World in a jug
TTITLE4=Turpentine moan
TTITLE5=Whiskey headed woman Nº 2
TTITLE6=Amphetamine Annie
TTITLE7=An owl song
TTITLE8=Marie Laveau
TTITLE9=Fried Hockey Boogie
TTITLE10=On the road again (Single Version)
TTITLE11=Boogie Music (Single Version)
TTITLE12=Goin' up the country (Single Version)
TTITLE13=One kind favor
TTITLE14=Christmas Blues
TTITLE15=The Chipmunk Song
EXTD=YEAR: 1968
EXTT0=
EXTT1=
EXTT2=
EXTT3=
EXTT4=
EXTT5=
EXTT6=
EXTT7=
EXTT8=
EXTT9=
EXTT10=
EXTT11=
EXTT12=
EXTT13=
EXTT14=
EXTT15=
PLAYORDER=
